<svg width="32" height="32" viewBox="0 0 32 32" fill="none" xmlns="http://www.w3.org/2000/svg">
<path d="M26.6667 0H12.4444C11.03 0 9.6734 0.561903 8.67321 1.5621C7.67301 2.56229 7.11111 3.91885 7.11111 5.33333V7.11111H5.33333C3.91885 7.11111 2.56229 7.67301 1.5621 8.67321C0.561903 9.6734 0 11.03 0 12.4444V26.6667C0 28.0812 0.561903 29.4377 1.5621 30.4379C2.56229 31.4381 3.91885 32 5.33333 32H19.5556C20.97 32 22.3266 31.4381 23.3268 30.4379C24.327 29.4377 24.8889 28.0812 24.8889 26.6667V24.8889H26.6667C28.0812 24.8889 29.4377 24.327 30.4379 23.3268C31.4381 22.3266 32 20.97 32 19.5556V5.33333C32 3.91885 31.4381 2.56229 30.4379 1.5621C29.4377 0.561903 28.0812 0 26.6667 0ZM21.3333 26.6667C21.3333 27.1382 21.146 27.5903 20.8126 27.9237C20.4792 28.2571 20.0271 28.4444 19.5556 28.4444H5.33333C4.86184 28.4444 4.40965 28.2571 4.07625 27.9237C3.74286 27.5903 3.55556 27.1382 3.55556 26.6667V12.4444C3.55556 11.9729 3.74286 11.5208 4.07625 11.1874C4.40965 10.854 4.86184 10.6667 5.33333 10.6667H19.5556C20.0271 10.6667 20.4792 10.854 20.8126 11.1874C21.146 11.5208 21.3333 11.9729 21.3333 12.4444V26.6667ZM28.4444 19.5556C28.4444 20.0271 28.2571 20.4792 27.9237 20.8126C27.5903 21.146 27.1382 21.3333 26.6667 21.3333H24.8889V12.4444C24.8889 11.03 24.327 9.6734 23.3268 8.67321C22.3266 7.67301 20.97 7.11111 19.5556 7.11111H10.6667V5.33333C10.6667 4.86184 10.854 4.40965 11.1874 4.07625C11.5208 3.74286 11.9729 3.55556 12.4444 3.55556H26.6667C27.1382 3.55556 27.5903 3.74286 27.9237 4.07625C28.2571 4.40965 28.4444 4.86184 28.4444 5.33333V19.5556Z" fill="#9F9F9F"/>
</svg>
