<svg width="15" height="25" viewBox="0 0 15 25" fill="none" xmlns="http://www.w3.org/2000/svg">
<path d="M14.2658 20.7026C14.7359 21.1727 15 21.8103 15 22.4751C15 23.14 14.7359 23.7776 14.2658 24.2477C13.7957 24.7178 13.1581 24.9819 12.4932 24.9819C11.8284 24.9819 11.1908 24.7178 10.7207 24.2477L0.734565 14.2615C0.500568 14.0294 0.314841 13.7533 0.188095 13.4491C0.0613494 13.1449 -0.00390625 12.8186 -0.00390625 12.489C-0.00390625 12.1594 0.0613494 11.8331 0.188095 11.5289C0.314841 11.2247 0.500568 10.9485 0.734565 10.7164L10.7207 0.730304C10.9535 0.497531 11.2298 0.312886 11.534 0.18691C11.8381 0.0609335 12.1641 -0.00390625 12.4932 -0.00390625C12.8224 -0.00390625 13.1484 0.0609335 13.4525 0.18691C13.7567 0.312886 14.033 0.497531 14.2658 0.730304C14.4986 0.963078 14.6832 1.23942 14.8092 1.54355C14.9352 1.84769 15 2.17365 15 2.50284C15 2.83204 14.9352 3.15801 14.8092 3.46214C14.6832 3.76627 14.4986 4.04261 14.2658 4.27539L6.02722 12.489L14.2658 20.7026Z" fill="#C5C5C5"/>
</svg>
