<svg width="32" height="32" viewBox="0 0 32 32" fill="none" xmlns="http://www.w3.org/2000/svg">
<path fill-rule="evenodd" clip-rule="evenodd" d="M14.2222 3.55556C8.33119 3.55556 3.55556 8.33118 3.55556 14.2222C3.55556 20.1133 8.33119 24.8889 14.2222 24.8889C20.1133 24.8889 24.8889 20.1133 24.8889 14.2222C24.8889 8.33118 20.1133 3.55556 14.2222 3.55556ZM0 14.2222C0 6.36751 6.36751 0 14.2222 0C22.0769 0 28.4444 6.36751 28.4444 14.2222C28.4444 17.5088 27.3296 20.535 25.4575 22.9434L31.4793 28.9651C32.1736 29.6594 32.1736 30.785 31.4793 31.4793C30.785 32.1736 29.6594 32.1736 28.9651 31.4793L22.9434 25.4575C20.535 27.3296 17.5088 28.4444 14.2222 28.4444C6.36751 28.4444 0 22.0769 0 14.2222Z" fill="#525252"/>
</svg>
