<svg width="30" height="30" viewBox="0 0 30 30" fill="none" xmlns="http://www.w3.org/2000/svg">
<path d="M15 6C13.8133 6 12.6533 6.35189 11.6666 7.01118C10.6799 7.67047 9.91085 8.60754 9.45673 9.7039C9.0026 10.8003 8.88378 12.0067 9.11529 13.1705C9.3468 14.3344 9.91825 15.4035 10.7574 16.2426C11.5965 17.0818 12.6656 17.6532 13.8295 17.8847C14.9933 18.1162 16.1997 17.9974 17.2961 17.5433C18.3925 17.0891 19.3295 16.3201 19.9888 15.3334C20.6481 14.3467 21 13.1867 21 12C21 10.4087 20.3679 8.88258 19.2426 7.75736C18.1174 6.63214 16.5913 6 15 6ZM15 15C14.4067 15 13.8266 14.824 13.3333 14.4944C12.8399 14.1648 12.4554 13.6962 12.2284 13.148C12.0013 12.5999 11.9419 11.9967 12.0576 11.4147C12.1734 10.8328 12.4591 10.2982 12.8787 9.87868C13.2982 9.45912 13.8328 9.1734 14.4147 9.05764C14.9967 8.94189 15.5999 9.0013 16.1481 9.22836C16.6962 9.45542 17.1648 9.83994 17.4944 10.3333C17.8241 10.8266 18 11.4067 18 12C18 12.7956 17.6839 13.5587 17.1213 14.1213C16.5587 14.6839 15.7957 15 15 15ZM15 0C12.0333 0 9.13319 0.879734 6.66645 2.52796C4.19972 4.17618 2.27713 6.51885 1.14181 9.25975C0.00649926 12.0006 -0.290551 15.0166 0.288228 17.9264C0.867006 20.8361 2.29562 23.5088 4.3934 25.6066C6.49119 27.7044 9.16394 29.133 12.0737 29.7118C14.9834 30.2906 17.9994 29.9935 20.7403 28.8582C23.4811 27.7229 25.8238 25.8003 27.472 23.3335C29.1203 20.8668 30 17.9667 30 15C30 13.0302 29.612 11.0796 28.8582 9.25975C28.1044 7.43986 26.9995 5.78628 25.6066 4.3934C24.2137 3.00052 22.5601 1.89563 20.7403 1.14181C18.9204 0.387986 16.9698 0 15 0V0ZM9.00001 25.38V24C9.00001 23.6022 9.15804 23.2206 9.43935 22.9393C9.72065 22.658 10.1022 22.5 10.5 22.5H19.5C19.8978 22.5 20.2794 22.658 20.5607 22.9393C20.842 23.2206 21 23.6022 21 24V25.38C19.1783 26.4406 17.108 26.9994 15 26.9994C12.892 26.9994 10.8217 26.4406 9.00001 25.38V25.38ZM23.895 23.025C23.6731 22.0249 23.1165 21.1305 22.3174 20.4896C21.5183 19.8487 20.5244 19.4996 19.5 19.5H10.5C9.47561 19.4996 8.48172 19.8487 7.6826 20.4896C6.88348 21.1305 6.32696 22.0249 6.10501 23.025C4.54589 21.3032 3.51998 19.166 3.15175 16.8726C2.78353 14.5792 3.08881 12.2282 4.03057 10.1049C4.97233 7.98162 6.51008 6.17728 8.45722 4.91083C10.4044 3.64437 12.6772 2.97025 15 2.97025C17.3228 2.97025 19.5956 3.64437 21.5428 4.91083C23.4899 6.17728 25.0277 7.98162 25.9694 10.1049C26.9112 12.2282 27.2165 14.5792 26.8483 16.8726C26.48 19.166 25.4541 21.3032 23.895 23.025V23.025Z" fill="#ACACAC"/>
</svg>
