<svg width="20" height="20" viewBox="0 0 20 20" fill="none" xmlns="http://www.w3.org/2000/svg">
<path d="M13.8891 7.52527C14.2796 7.13474 14.2796 6.50158 13.8891 6.11105C13.4986 5.72053 12.8654 5.72053 12.4749 6.11105L13.8891 7.52527ZM6.11091 12.475C5.72039 12.8655 5.72039 13.4987 6.11091 13.8892C6.50144 14.2798 7.1346 14.2798 7.52513 13.8892L6.11091 12.475ZM12.4749 13.8892C12.8654 14.2798 13.4986 14.2798 13.8891 13.8892C14.2796 13.4987 14.2796 12.8655 13.8891 12.475L12.4749 13.8892ZM7.52513 6.11105C7.1346 5.72053 6.50144 5.72053 6.11091 6.11105C5.72039 6.50158 5.72039 7.13474 6.11091 7.52526L7.52513 6.11105ZM15.6569 15.657C12.5327 18.7812 7.46734 18.7812 4.34315 15.657L2.92893 17.0712C6.83418 20.9764 13.1658 20.9764 17.0711 17.0712L15.6569 15.657ZM4.34315 15.657C1.21895 12.5328 1.21895 7.46748 4.34315 4.34328L2.92893 2.92907C-0.976311 6.83431 -0.976311 13.166 2.92893 17.0712L4.34315 15.657ZM4.34315 4.34328C7.46734 1.21909 12.5327 1.21909 15.6569 4.34328L17.0711 2.92907C13.1658 -0.976172 6.83418 -0.976172 2.92893 2.92907L4.34315 4.34328ZM15.6569 4.34328C18.781 7.46748 18.781 12.5328 15.6569 15.657L17.0711 17.0712C20.9763 13.166 20.9763 6.83431 17.0711 2.92907L15.6569 4.34328ZM12.4749 6.11105L9.29289 9.29303L10.7071 10.7072L13.8891 7.52527L12.4749 6.11105ZM9.29289 9.29303L6.11091 12.475L7.52513 13.8892L10.7071 10.7072L9.29289 9.29303ZM13.8891 12.475L10.7071 9.29303L9.29289 10.7072L12.4749 13.8892L13.8891 12.475ZM10.7071 9.29303L7.52513 6.11105L6.11091 7.52526L9.29289 10.7072L10.7071 9.29303Z" fill="#525252"/>
</svg>
