<svg width="31" height="32" viewBox="0 0 31 32" fill="none" xmlns="http://www.w3.org/2000/svg">
<path d="M4.29167 12.625H3V6.875C3 5.77043 3.89543 4.875 5 4.875H10.75M4.29167 12.625V20.9583C4.29167 22.0629 5.1871 22.9583 6.29167 22.9583H22.9583C24.0629 22.9583 24.9583 22.0629 24.9583 20.9583V12.625M4.29167 12.625H12.0417M24.9583 12.625H26.25V6.875C26.25 5.77043 25.3546 4.875 24.25 4.875H18.5M24.9583 12.625H17.2083M17.2083 12.625V10.0417H12.0417V12.625M17.2083 12.625V15.2083H12.0417V12.625M10.75 4.875V3C10.75 1.89543 11.6454 1 12.75 1H16.5C17.6046 1 18.5 1.89543 18.5 3V4.875M10.75 4.875H18.5" stroke="black" stroke-width="2" stroke-linecap="round" stroke-linejoin="round"/>
</svg>
